# xmcd
# 
# Track frame offsets:
#     150
#     19386
#     39887
#     61331
#     77464
#     93589
#     109298
#     125740
#     147989
#     170925
#     187994
#     204467
# 
# Disc length: 2969
# 
# Revision: 1
# Processed by: cddbd v1.5.2PL0 Copyright (c) Steve Scherf et al.
# Submitted via: fre:ac v1.0.27
# 
DISCID=a90b970c
DTITLE=Ryan Shupe and the RubberBand - If I Were a Bird
DYEAR=1996
DGENRE=Country
TTITLE0=Set Your Sails
TTITLE1=I Am Not A Superhero
TTITLE2=If I Were A Bird
TTITLE3=Small House, Big Yard
TTITLE4=Two Year Old Attitude
TTITLE5=Walk the Walk
TTITLE6=Carry Me Away
TTITLE7=The Flu Song
TTITLE8=Crash and Burn
TTITLE9=Love You 'Til I Die
TTITLE10=China Man
TTITLE11=Sin Repellent
EXTD=YEAR: 1996
EXTT0=
EXTT1=
EXTT2=
EXTT3=
EXTT4=
EXTT5=
EXTT6=
EXTT7=
EXTT8=
EXTT9=
EXTT10=
EXTT11=
PLAYORDER=
